<svg xmlns="http://www.w3.org/2000/svg" width="100" height="100" viewBox="0 0 1316.79 1333.33" shape-rendering="geometricPrecision" text-rendering="geometricPrecision" image-rendering="optimizeQuality" fill-rule="evenodd" clip-rule="evenodd">
<style>
    path {
      fill: black;
    }
    @media (prefers-color-scheme: dark) {
      path {
        fill: white;
      }
    }
  </style>
  <path d="M530.01 633.82l-45.83 9.74c-15.42 3.27-30.58-6.23-34.48-21.34l-17.69-62.99-207.08 55.87 1.09 3.99c2.61 9.5 1.18 19.27-3.2 27.28-4.44 8.09-11.89 14.61-21.34 17.56-34.26 10.67-73.11 20.98-106.34 33.12-1.87.56-3.75.93-5.62 1.12a36.148 36.148 0 01-22.19-4.13c-7.97-4.37-14.32-11.79-17.25-21.24l-.07-.25-.04.01-.06-.2c-.28-.93-.51-1.87-.69-2.81L1.31 495.05c-2.61-9.53-1.17-19.26 3.2-27.28l.05-.09-.05-.03c4.42-8.05 11.88-14.53 21.33-17.47l105.79-32.91c1.64-.51 3.29-.87 4.94-1.1 8.21-1.37 16.37.15 23.31 3.94 8.07 4.41 14.47 11.78 17.38 21.12.14.46.27.91.39 1.37l206.44-54.09-15.6-55.57c-4.3-15.33 4.41-31.22 19.52-35.92l478.45-148.83-3.91-13.81c-4.73-14.88 3.06-30.98 17.87-36.41l260.52-96.2 1.83-.57c15.53-4.56 31.83 4.33 36.39 19.86l135.92 458.33a28.5 28.5 0 011.39 5.6c2.34 16.04-8.76 30.95-24.8 33.29l-282.29 41.55c-14.39 2.1-28.45-6.75-32.48-21.12l-1.97-6.97-199.34 45.41c5.15 28.39.26 56.82-12.51 81.11a127.02 127.02 0 01-18.87 26.8l300.63 602.61c7.22 14.52 1.31 32.15-13.2 39.37-14.52 7.23-32.15 1.32-39.37-13.2L822.09 972.71H679.34l5.27 330.87c.25 16.17-12.65 29.48-28.81 29.73-16.17.25-29.48-12.65-29.73-28.81l-5.28-331.79H474.25l-163 331.2c-7.16 14.52-24.74 20.48-39.26 13.32s-20.48-24.74-13.32-39.26L428.8 932.3c.54-1.32 1.16-2.6 1.88-3.82l122.76-249.43c-9.83-12.09-17.56-26.23-22.47-42.02l-.11-.36c-.29-.96-.57-1.91-.84-2.87zm262.75 280.14l-97.77-195.99c-2 .74-4.02 1.42-6.08 2.06l-.18.05c-4.44 1.37-8.9 2.49-13.36 3.35l3.03 190.52h114.36zm-172.92 0l-3.07-193.09c-5.39-1.54-10.66-3.44-15.78-5.68l-97.83 198.77h116.68zm70.14-258.98c.56-.43 1.13-.84 1.72-1.23a67.352 67.352 0 0019.5-22.81c8.02-15.26 10.22-33.62 4.69-51.42-5.54-17.82-17.78-31.7-33.07-39.74-14.85-7.81-32.63-10.09-49.98-5.11-.94.35-1.91.65-2.9.9-17.11 5.74-30.47 17.72-38.28 32.6-7.8 14.85-10.09 32.63-5.11 49.97.35.95.65 1.92.9 2.91 5.74 17.12 17.73 30.46 32.6 38.28 14.85 7.81 32.62 10.09 49.97 5.11.94-.35 1.91-.65 2.9-.9a67.594 67.594 0 0017.07-8.56zm61.43-132.42l207.02-47.17-76.9-270.45-448.85 139.62 15.57 55.47c.15.47.3.94.43 1.43l2.71 9.77 47.5 169.22 28.92-6.15c2.4-11.7 6.44-22.96 11.96-33.45 15.01-28.57 40.93-51.43 74.17-61.77l.18-.05c33.2-10.28 67.45-6.14 96.01 8.86 15.93 8.37 30.09 20.14 41.28 34.67zm-590.79 88.98a29.53 29.53 0 01-3.81-8.53l-31.45-116.28.06-.02-.06-.21c-.26-.99-.46-1.98-.61-2.97l-58.29 18.13 35.46 129.17 58.96-18.34-.26-.94zm32.47-112.43l16.31 59.39 206.58-55.74-15.6-56.23-.45-1.6-206.84 54.19z" fill-rule="nonzero"/></svg>